<svg width="14" height="14" viewBox="0 0 14 14" fill="none" xmlns="http://www.w3.org/2000/svg">
<path fill-rule="evenodd" clip-rule="evenodd" d="M11.6927 2.90707C11.7477 2.94881 11.7939 3.00098 11.8287 3.0606C11.8635 3.12022 11.8862 3.18612 11.8955 3.25452C11.9048 3.32291 11.9005 3.39248 11.8829 3.45922C11.8653 3.52596 11.8347 3.58857 11.7928 3.64347L6.19284 10.9935C6.14742 11.053 6.08978 11.1021 6.0238 11.1376C5.95783 11.173 5.88503 11.1939 5.81031 11.1989C5.73559 11.2038 5.66067 11.1928 5.59058 11.1664C5.52049 11.14 5.45685 11.099 5.40394 11.046L2.25394 7.89597C2.16121 7.79645 2.11072 7.66482 2.11312 7.52881C2.11552 7.3928 2.17062 7.26303 2.26681 7.16684C2.363 7.07065 2.49276 7.01555 2.62878 7.01315C2.76479 7.01075 2.89642 7.06124 2.99594 7.15398L5.72174 9.87908L10.9577 3.00717C11.042 2.89654 11.1667 2.82386 11.3045 2.8051C11.4423 2.78633 11.582 2.82301 11.6927 2.90707Z" fill="#475B78"/>
</svg>
