<svg width="14" height="14" viewBox="0 0 14 14" fill="none" xmlns="http://www.w3.org/2000/svg">
<path fill-rule="evenodd" clip-rule="evenodd" d="M6.12497 0.699951C5.61442 0.699951 5.12479 0.902763 4.76379 1.26377C4.40278 1.62478 4.19997 2.11441 4.19997 2.62495V2.93505C3.64347 2.98895 3.09117 3.05825 2.54447 3.14365C2.47534 3.15307 2.40878 3.17617 2.34869 3.2116C2.28859 3.24703 2.23616 3.29409 2.19446 3.35002C2.15275 3.40594 2.12262 3.46962 2.1058 3.53733C2.08899 3.60504 2.08584 3.67542 2.09654 3.74436C2.10724 3.8133 2.13157 3.87942 2.16812 3.93884C2.20466 3.99827 2.25268 4.04982 2.30937 4.09048C2.36607 4.13113 2.43029 4.16009 2.4983 4.17564C2.56631 4.19119 2.63674 4.19303 2.70547 4.18105L2.80977 4.16565L3.39847 11.5283C3.43701 12.0107 3.65586 12.4609 4.01143 12.7892C4.367 13.1176 4.83319 13.2999 5.31717 13.3H8.68207C9.16605 13.3001 9.63232 13.1179 9.98803 12.7897C10.3437 12.4615 10.5627 12.0114 10.6015 11.529L11.1902 4.16495L11.2945 4.18105C11.4308 4.19962 11.5689 4.16395 11.6792 4.08173C11.7894 3.99951 11.863 3.87729 11.8841 3.74137C11.9052 3.60545 11.8721 3.46667 11.792 3.3549C11.7118 3.24312 11.591 3.16727 11.4555 3.14365C10.9058 3.0581 10.3537 2.98854 9.79997 2.93505V2.62495C9.79997 2.11441 9.59715 1.62478 9.23615 1.26377C8.87514 0.902763 8.38551 0.699951 7.87497 0.699951H6.12497ZM6.99997 2.79995C7.58797 2.79995 8.17107 2.81745 8.74997 2.85245V2.62495C8.74997 2.14195 8.35797 1.74995 7.87497 1.74995H6.12497C5.64197 1.74995 5.24997 2.14195 5.24997 2.62495V2.85245C5.82887 2.81745 6.41197 2.79995 6.99997 2.79995ZM6.00597 5.40395C6.0004 5.26471 5.93974 5.13339 5.83735 5.03887C5.73495 4.94435 5.59921 4.89438 5.45997 4.89995C5.32073 4.90552 5.1894 4.96618 5.09489 5.06857C5.00037 5.17096 4.9504 5.30671 4.95597 5.44595L5.16597 10.696C5.16872 10.7649 5.18503 10.8326 5.21397 10.8953C5.2429 10.9579 5.28388 11.0142 5.33458 11.061C5.38529 11.1078 5.44471 11.1442 5.50946 11.168C5.57421 11.1919 5.64302 11.2027 5.71197 11.2C5.78091 11.1972 5.84864 11.1809 5.91128 11.152C5.97392 11.123 6.03025 11.082 6.07705 11.0313C6.12385 10.9806 6.1602 10.9212 6.18404 10.8565C6.20788 10.7917 6.21872 10.7229 6.21597 10.654L6.00597 5.40395ZM9.04397 5.44595C9.04672 5.37701 9.03588 5.3082 9.01204 5.24344C8.9882 5.17869 8.95185 5.11927 8.90505 5.06857C8.85825 5.01787 8.80192 4.97688 8.73928 4.94795C8.67664 4.91902 8.60891 4.90271 8.53997 4.89995C8.40073 4.89438 8.26498 4.94435 8.16258 5.03887C8.06019 5.13339 7.99954 5.26471 7.99397 5.40395L7.78397 10.654C7.78121 10.7229 7.79206 10.7917 7.81589 10.8565C7.83973 10.9212 7.87609 10.9806 7.92289 11.0313C7.96969 11.082 8.02602 11.123 8.08866 11.152C8.1513 11.1809 8.21902 11.1972 8.28797 11.2C8.35691 11.2027 8.42572 11.1919 8.49047 11.168C8.55522 11.1442 8.61465 11.1078 8.66535 11.061C8.71605 11.0142 8.75703 10.9579 8.78597 10.8953C8.8149 10.8326 8.83121 10.7649 8.83397 10.696L9.04397 5.44595Z" fill="#475B78"/>
</svg>
